<svg width="100" height="52" viewBox="0 0 100 52" fill="none" xmlns="http://www.w3.org/2000/svg">
<path d="M71.4768 32.9693C71.477 34.2223 71.477 35.4249 71.477 36.6658C70.3793 36.6658 69.2986 36.6658 68.1867 36.6658C68.1867 33.889 68.1867 31.133 68.1867 28.3065C68.3707 28.3065 68.5539 28.3065 68.7371 28.3065C71.0804 28.3063 73.4238 28.3095 75.7671 28.3034C76.4021 28.3017 76.7026 28.034 76.734 27.4865C76.7696 26.8643 76.4507 26.5514 75.7347 26.5501C73.4087 26.5457 71.0827 26.5519 68.7567 26.5541C68.5712 26.5542 68.3857 26.5541 68.177 26.5541C68.177 25.4368 68.177 24.3739 68.177 23.2899C68.2338 23.2728 68.2969 23.2372 68.3599 23.2374C70.8592 23.2456 73.3586 23.2547 75.8579 23.271C76.1694 23.273 76.4838 23.2959 76.7916 23.3428C79.2459 23.7169 80.5144 25.5223 80.0842 27.9888C79.8293 29.4504 78.9907 30.444 77.617 31.0316C77.4602 31.0987 77.3014 31.1613 77.0791 31.2524C78.2395 33.0647 79.3819 34.8491 80.5684 36.7023C79.6369 36.7023 78.7519 36.6129 77.8941 36.7242C76.7477 36.873 76.1061 36.4538 75.6013 35.4623C74.9701 34.2224 74.1622 33.069 73.4513 31.8665C73.2757 31.5695 73.0894 31.4307 72.7189 31.4495C71.566 31.5081 71.4445 31.1765 71.4751 32.6645C71.4768 32.7493 71.4761 32.8341 71.4768 32.9693Z" fill="#111111"/>
<path d="M58.1993 23.2502C58.6616 23.1828 58.633 23.455 58.6328 23.7196C58.631 26.5841 58.632 29.4485 58.6329 32.3129C58.633 32.4993 58.6375 32.6857 58.6433 32.872C58.6564 33.2877 58.875 33.482 59.303 33.4808C60.483 33.4776 61.6631 33.4772 62.843 33.4901C63.2188 33.4941 63.3824 33.3133 63.4107 32.977C63.4235 32.8254 63.4185 32.6723 63.418 32.5198C63.41 29.6046 63.4014 26.6893 63.3931 23.7741C63.3926 23.6092 63.393 23.4442 63.393 23.2537C64.5498 23.2537 65.6525 23.2537 66.7823 23.2537C66.7922 23.3969 66.8093 23.5289 66.8093 23.6609C66.8077 26.7795 66.8081 29.8982 66.7968 33.0168C66.7952 33.4559 66.7559 33.8975 66.698 34.3333C66.4947 35.8619 65.7858 36.6469 64.214 36.6977C62.0176 36.7688 59.8114 36.7262 57.6166 36.6066C56.2136 36.5302 55.5644 35.8211 55.3234 34.4577C55.2411 33.9919 55.1875 33.5151 55.1858 33.0431C55.1741 29.8066 55.1797 26.57 55.1797 23.2503C56.1542 23.2503 57.1529 23.2503 58.1993 23.2502Z" fill="#111111"/>
<path d="M89.1976 26.3531C89.1976 25.3032 89.1976 24.3042 89.1976 23.2687C90.3169 23.2687 91.4178 23.2687 92.5573 23.2687C92.5689 23.4145 92.5907 23.5603 92.5908 23.7062C92.5913 26.8243 92.5985 29.9425 92.5801 33.0605C92.5766 33.6501 92.5139 34.2473 92.4012 34.8267C92.2035 35.8436 91.5867 36.5607 90.4997 36.6221C88.5811 36.7303 86.6566 36.7481 84.7341 36.7714C84.183 36.778 83.6249 36.7054 83.0799 36.6133C81.9462 36.4219 81.3535 35.866 81.1702 34.7627C81.0542 34.0638 81.0047 33.3479 80.999 32.6391C80.9742 29.5551 80.9765 26.4709 80.97 23.3867C80.97 23.3546 80.9848 23.3224 81.0012 23.2557C82.1086 23.2557 83.2242 23.2557 84.3878 23.2557C84.3878 23.4458 84.3878 23.6106 84.3878 23.7755C84.3877 26.6902 84.3867 29.605 84.3879 32.5198C84.3883 33.4475 84.434 33.4898 85.3821 33.4894C86.4231 33.4891 87.4641 33.4914 88.5051 33.4865C89.1192 33.4836 89.2027 33.4092 89.2035 32.8097C89.2063 30.6744 89.2003 28.5392 89.1976 26.3531Z" fill="#111111"/>
<path d="M39.4354 24.6691C41.0166 22.2538 43.2279 20.8997 46.1236 20.6687C48.0122 20.5181 49.8382 20.7764 51.4987 21.7225C52.1036 22.0672 52.6395 22.5273 53.267 22.9779C52.3755 23.9087 51.5633 24.7567 50.7127 25.6448C49.4208 24.4553 47.9155 23.9446 46.1787 24.1078C45.215 24.1984 44.3671 24.5523 43.638 25.1676C42.0766 26.485 41.5613 28.954 42.4538 30.9146C43.0167 32.1514 43.9398 33.0314 45.2834 33.4373C46.5831 33.8299 47.8873 33.6869 49.2311 33.3714C49.2311 34.5821 49.2311 35.7427 49.2311 36.9082C46.6412 37.9034 42.406 36.739 40.3391 34.4558C38.0197 31.8936 37.639 27.877 39.4354 24.6691Z" fill="#111111"/>
<path d="M62.6195 17.4425C62.7321 17.4332 62.8446 17.4238 63.0341 17.445C63.2835 17.4844 63.4561 17.504 63.6281 17.5006C65.1336 17.4709 66.6389 17.4136 68.1443 17.4117C69.4067 17.4102 70.6693 17.4709 71.9317 17.5083C72.0006 17.5103 72.0683 17.551 72.2776 17.6206C72.0499 17.6685 71.9739 17.6943 71.8965 17.6993C70.7947 17.7698 69.6853 17.7813 68.5923 17.9182C66.6812 18.1576 64.7617 18.3883 62.8793 18.7778C60.2021 19.332 57.6328 20.2434 55.1622 21.4025C54.792 21.5761 54.4368 21.7067 54.0405 21.5019C54.0405 21.5019 54.0589 21.4927 54.0497 21.4643C53.9599 21.3507 53.8894 21.2532 53.7973 21.1823C52.725 20.3579 51.5049 19.8085 50.2096 19.4295C49.7171 19.2853 49.1828 19.2773 48.6676 19.2073C48.6183 19.2074 48.569 19.2076 48.4707 19.1589C47.5691 18.838 46.7046 19.0524 45.8454 19.0553C45.8132 19.0554 45.7811 19.126 45.749 19.1637C45.7005 19.1782 45.652 19.1927 45.5318 19.1812C44.9185 19.1204 44.377 19.0856 43.8354 19.0508C43.8354 19.0508 43.8491 19.0472 43.8435 19.0175C43.4456 18.3709 43.0127 17.796 42.2713 17.5395C42.2713 17.5395 42.2871 17.5076 42.2794 17.4881C41.8556 17.1864 41.4395 16.9044 41.0234 16.6223C41.0234 16.6223 41.0431 16.5987 41.0313 16.5757C40.2123 16.145 39.4447 15.6074 38.5891 15.3583C37.1061 14.9266 35.5744 14.6441 34.0511 14.3607C33.4889 14.2561 32.8927 14.3258 32.312 14.316C32.2638 14.3186 32.2155 14.3211 32.1173 14.2772C31.9724 14.2022 31.8778 14.1499 31.7823 14.1484C29.2736 14.1081 26.7805 14.2332 24.3308 14.8218C24.2044 14.8522 24.0637 14.8257 23.9296 14.8257C24.004 14.6667 24.0843 14.5981 24.1769 14.5737C25.9235 14.1133 27.6726 13.6614 29.4192 13.201C31.3838 12.683 33.3986 12.572 35.4156 12.5265C36.5373 12.5011 37.662 12.5722 38.7845 12.6185C40.9051 12.706 42.9517 13.1588 44.9476 13.8475C45.3968 14.0024 45.8438 14.1633 46.2917 14.3215C46.2917 14.3215 46.28 14.3303 46.2895 14.359C46.819 14.7025 47.339 15.0174 47.8589 15.3323C47.8589 15.3323 47.8446 15.3589 47.8556 15.3737C47.9025 15.3993 47.9384 15.4102 47.9742 15.4211C47.9742 15.4211 47.9592 15.4514 47.9654 15.4732C48.108 15.5771 48.2444 15.6591 48.3807 15.7411C48.3807 15.7411 48.3665 15.7554 48.377 15.7751C48.423 15.807 48.4587 15.8192 48.4943 15.8315C48.4943 15.8315 48.452 15.8434 48.4716 15.873C49.1946 16.7201 50.1793 17.0373 51.1802 17.2854C51.7928 17.4373 52.4327 17.5127 53.065 17.5531C54.0229 17.6143 54.9849 17.6151 55.9452 17.6415C56.4734 17.6354 57.0017 17.6294 57.6141 17.653C59.2612 17.6553 60.8243 17.6303 62.3871 17.5942C62.4657 17.5924 62.5421 17.4953 62.6195 17.4425Z" fill="#111111"/>
<path d="M36.1584 26.3589C35.447 26.3592 34.7863 26.381 34.128 26.3518C33.733 26.3343 33.6299 26.4593 33.6323 26.842C33.6514 29.8771 33.6475 32.9123 33.6496 35.9475C33.6501 36.7204 33.6485 36.7204 32.8514 36.7193C32.0702 36.7183 31.288 36.6936 30.5081 36.7253C30.0516 36.7438 29.9095 36.6012 29.9121 36.1513C29.9296 33.0653 29.9215 29.9792 29.9217 26.8932C29.9217 26.7422 29.9217 26.5913 29.9217 26.3541C29.1694 26.3541 28.4482 26.3535 27.727 26.3542C26.3768 26.3555 26.376 26.3558 26.3711 25.03C26.3689 24.4218 26.3708 23.8135 26.3708 23.1524C26.5968 23.1405 26.7812 23.1223 26.9655 23.1223C30.1946 23.1212 33.4238 23.1319 36.6528 23.113C37.1565 23.11 37.3249 23.2583 37.2973 23.7481C37.2591 24.4244 37.2508 25.1065 37.2979 25.7816C37.3326 26.277 37.1363 26.4172 36.6784 26.3621C36.5245 26.3436 36.3663 26.359 36.1584 26.3589Z" fill="#111111"/>
<path d="M47.2236 44.4423C47.07 44.4443 46.9589 44.4443 46.7175 44.4443C46.905 44.3276 46.9798 44.2671 47.0652 44.23C49.1953 43.307 50.4412 41.6691 50.5744 39.448C50.7299 36.8534 50.6107 34.2432 50.6107 31.5947C49.0869 31.5947 47.5507 31.5947 45.976 31.5947C45.976 30.5456 45.976 29.5404 45.976 28.5048C48.5579 28.5048 51.1512 28.5048 53.8059 28.5048C53.8059 28.9896 53.8061 29.4742 53.8059 29.9587C53.8047 32.2967 53.762 34.6354 53.8116 36.9723C53.8939 40.8497 51.4055 43.9548 47.2236 44.4423Z" fill="#111111"/>
<path d="M18.6612 23.1068C20.5526 23.1076 22.392 23.1173 24.2311 23.1023C24.6491 23.0988 24.8351 23.2085 24.7958 23.6476C24.7597 24.0511 24.7761 24.4611 24.7971 24.8669C24.8146 25.2021 24.6705 25.3177 24.3395 25.3133C23.2467 25.2987 22.1533 25.314 21.0607 25.2901C20.2224 25.2718 19.7312 25.3953 19.6844 26.3174C19.6788 26.4279 19.4509 26.6171 19.3241 26.6187C17.5371 26.6411 15.7498 26.635 13.9626 26.6421C13.6651 26.6433 13.5908 26.497 13.5666 26.2332C13.5061 25.5718 13.2536 25.3308 12.5713 25.3189C11.4265 25.299 10.2806 25.2912 9.13606 25.3164C8.66941 25.3266 8.5184 25.1663 8.55877 24.7262C8.59269 24.3564 8.59285 23.9785 8.55666 23.609C8.51623 23.1962 8.67639 23.095 9.08304 23.0969C12.2583 23.1123 15.4338 23.1062 18.6612 23.1068Z" fill="#111111"/>
<path d="M46.8488 13.0618C45.3192 10.8649 46.354 8.00874 48.8327 7.49211C50.5519 7.13377 52.1373 7.93166 52.7755 9.47645C53.4282 11.0563 52.8541 13.0282 51.4953 13.8735C50.0354 14.7817 48.2184 14.5269 47.0086 13.2438C46.9616 13.1939 46.9178 13.1412 46.8488 13.0618Z" fill="#111111"/>
<path d="M45.8456 41.1899C45.8456 41.1899 45.8138 41.2164 45.7516 41.2137C45.5276 41.2636 45.3647 41.3134 45.204 41.3695C43.8762 41.8329 42.564 42.3468 41.216 42.7448C40.2823 43.0204 39.3041 43.1663 38.3371 43.317C37.0486 43.5178 35.752 43.6692 34.4574 43.8298C34.4078 43.8359 34.3419 43.7172 34.2837 43.6566C34.7305 43.4964 35.1774 43.3361 35.6973 43.1619C36.9789 42.8911 38.045 42.329 39.0685 41.6765C39.0787 41.67 39.0763 41.6446 39.0798 41.6281C39.0798 41.6281 39.1029 41.6006 39.1609 41.6018C39.6834 41.2891 40.1478 40.9752 40.6122 40.6612C40.6122 40.6612 40.6269 40.6865 40.6551 40.6832C40.948 40.451 41.2127 40.2222 41.4774 39.9934C41.4774 39.9934 41.4749 39.9866 41.51 39.9851C41.5838 39.9402 41.6226 39.8968 41.6613 39.8533C41.6613 39.8533 41.6652 39.8659 41.6948 39.8605C41.8843 39.6958 42.0441 39.5366 42.204 39.3773C42.204 39.3773 42.2028 39.3758 42.2362 39.3728C42.3185 39.3074 42.3675 39.2449 42.4164 39.1824C42.4164 39.1824 42.4141 39.1745 42.4498 39.1715C42.5182 39.1217 42.5508 39.0748 42.5834 39.0279C42.5834 39.0279 42.5897 39.0398 42.6188 39.0378C42.709 38.9478 42.7702 38.8598 42.8313 38.7718C42.8313 38.7718 42.8281 38.7658 42.8634 38.7629C42.9274 38.7122 42.9561 38.6644 42.9848 38.6166C42.9946 38.6333 43.0044 38.65 43.0336 38.6429C43.0813 38.5651 43.1096 38.5113 43.1379 38.4574C43.1379 38.4574 43.1403 38.4602 43.1762 38.454C43.4482 38.4182 43.6943 38.3319 43.9186 38.3695C44.6946 38.4995 45.4491 38.8024 46.259 38.5977C46.373 38.5976 46.487 38.5975 46.659 38.6436C47.3262 38.6777 47.9359 38.6479 48.5442 38.6652C48.7064 38.6699 48.8642 38.8188 49.024 38.9015C49.024 38.9015 49.01 38.8855 48.9765 38.8944C48.854 39.0328 48.7651 39.1625 48.6761 39.2921C48.6761 39.2921 48.6663 39.2788 48.639 39.2823C48.5551 39.3679 48.4984 39.4499 48.4417 39.532C48.4417 39.532 48.4297 39.5613 48.3801 39.5674C48.2448 39.6558 48.159 39.7383 48.0732 39.8208C48.0732 39.8208 48.0656 39.8233 48.0322 39.8207C47.8866 39.9241 47.7744 40.0301 47.6622 40.1361C47.6622 40.1361 47.6357 40.1392 47.6183 40.1335C47.5781 40.1576 47.5553 40.1875 47.5325 40.2173C47.5325 40.2173 47.5312 40.207 47.4981 40.2053C47.2761 40.34 47.087 40.4763 46.898 40.6127C46.898 40.6127 46.8965 40.603 46.8615 40.605C46.4996 40.8013 46.1726 40.9956 45.8456 41.1899Z" fill="#111111"/>
<path d="M30.3218 16.6174C30.4027 16.6163 30.4837 16.6151 30.6189 16.6615C31.1294 16.7687 31.5845 16.8392 32.0421 16.886C34.0988 17.0967 36.0777 17.5757 37.943 18.4697C38.354 18.6666 38.7877 18.8184 39.2109 18.991C39.2109 18.991 39.1898 19.0241 39.2075 19.0398C39.2881 19.0718 39.3511 19.0883 39.414 19.1047C39.414 19.1047 39.4005 19.1142 39.4115 19.1415C39.5013 19.2652 39.5801 19.3617 39.6949 19.5024C39.5302 19.5024 39.4275 19.5214 39.3351 19.4993C38.6191 19.3282 37.9112 19.1172 37.1883 18.9827C36.6129 18.8756 36.0198 18.8589 35.4346 18.8021C35.3525 18.7967 35.2705 18.7912 35.1355 18.735C34.4251 18.594 33.7698 18.4822 33.1097 18.4204C32.6049 18.3732 32.0939 18.3892 31.5856 18.3771C31.5358 18.3785 31.4859 18.38 31.3838 18.3333C30.702 18.2278 30.0733 18.1317 29.443 18.1212C27.9743 18.0967 26.5043 18.0921 25.0358 18.1247C24.5075 18.1365 23.9821 18.2779 23.4554 18.3601C23.3755 18.3745 23.2955 18.3889 23.1411 18.3741C21.6708 18.5084 20.275 18.6712 18.8794 18.8362C18.659 18.8623 18.4398 18.8985 18.22 18.93C18.2103 18.8863 18.2007 18.8426 18.1911 18.7988C18.2588 18.7647 18.323 18.7192 18.3948 18.6982C19.9784 18.2357 21.5496 17.7238 23.152 17.3346C24.1606 17.0897 25.2174 17.0374 26.25 16.882C26.6408 16.8231 27.0243 16.7174 27.4111 16.633C27.524 16.6223 27.6369 16.6115 27.8271 16.6315C28.7102 16.6473 29.516 16.6324 30.3218 16.6174Z" fill="#111111"/>
<path d="M19.7954 30.2168C19.7955 31.3479 19.7955 31.3496 18.6725 31.351C17.1308 31.3528 15.589 31.3419 14.0474 31.359C13.6599 31.3633 13.5337 31.243 13.5501 30.8628C13.5785 30.2042 13.5674 29.5431 13.547 28.8838C13.5375 28.5779 13.6411 28.466 13.9591 28.4644C15.7077 28.4559 17.4562 28.4352 19.2046 28.4104C19.629 28.4043 19.8445 28.5417 19.8021 28.9996C19.7664 29.3856 19.7951 29.7772 19.7954 30.2168Z" fill="#111111"/>
<path d="M68.9646 14.0722C70.7285 14.3995 72.4146 14.8314 74.0421 15.4601C67.5729 14.1108 61.0555 13.9163 54.4946 14.558C59.2736 13.5014 64.0766 13.1898 68.9646 14.0722Z" fill="#111111"/>
<path d="M7.54884 32.1626C7.48349 31.5468 7.44473 30.9455 7.44557 30.3443C7.44567 30.2707 7.65598 30.138 7.77255 30.134C8.39559 30.1124 9.01991 30.1292 9.64358 30.1197C9.91627 30.1155 10.0038 30.2333 10.0023 30.488C9.99413 31.8419 9.9899 33.196 10.0005 34.5498C10.0032 34.8865 9.86156 35.0122 9.5339 34.986C9.41344 34.9763 9.2899 34.973 9.17042 34.9876C8.79128 35.0337 8.6518 34.8991 8.66402 34.5078C8.6925 33.5957 8.6731 32.6821 8.64584 31.7402C8.49858 32.4159 7.9502 32.067 7.54884 32.1626Z" fill="#111111"/>
<path d="M24.7079 31.5465C24.7036 32.5495 24.6741 33.5144 24.7093 34.477C24.7306 35.0588 24.3591 34.9643 23.9965 34.9919C23.5798 35.0235 23.4215 34.9006 23.425 34.4632C23.4353 33.1795 23.398 31.8954 23.3772 30.6115C23.3722 30.2983 23.4527 30.0968 23.8447 30.1136C24.3977 30.1374 24.9536 30.1376 25.5064 30.1108C25.8856 30.0923 25.9909 30.2458 25.9682 30.5861C25.9469 30.906 25.9715 31.2286 25.9659 31.5498C25.9609 31.837 26.0722 32.1852 25.542 32.1574C25.1378 32.1361 24.7001 32.2299 24.8009 31.5969C24.8078 31.554 24.775 31.5051 24.7607 31.459C24.7438 31.4752 24.7269 31.4913 24.7079 31.5465Z" fill="#111111"/>
<path d="M20.8748 33.0682C20.8745 32.2086 20.884 31.3996 20.869 30.591C20.8627 30.2507 20.9745 30.1026 21.3452 30.1105C22.7706 30.141 22.4878 29.9431 22.5048 31.212C22.5193 32.2933 22.5017 33.3752 22.5255 34.4562C22.5341 34.8471 22.4094 35.0012 21.9947 34.9908C20.7008 34.9582 20.8781 35.1286 20.8734 33.93C20.8723 33.6597 20.8742 33.3893 20.8748 33.0682Z" fill="#111111"/>
<path d="M12.4168 32.0506C12.418 32.9131 12.4098 33.7249 12.4248 34.5364C12.4309 34.8632 12.306 34.9924 11.9691 34.9848C10.7307 34.9569 10.8788 35.1398 10.8785 33.9488C10.8782 32.8835 10.8934 31.8176 10.8617 30.7532C10.8478 30.2871 10.9583 30.0798 11.487 30.1034C12.5894 30.1525 12.389 29.9937 12.4149 31.0359C12.4229 31.357 12.4166 31.6784 12.4168 32.0506Z" fill="#111111"/>
<path d="M77.4523 41.7681C77.3084 41.7871 77.2043 41.7937 77.1008 41.7888C77.0526 41.7866 77.0054 41.7623 76.9085 41.7331C76.9085 41.0268 76.9085 40.3122 76.9085 39.4509C76.5344 40.0209 76.2438 40.4637 75.8888 41.0046C75.5773 40.515 75.3223 40.1142 75.0674 39.7134C75.032 39.7218 74.9966 39.7301 74.9612 39.7384C74.9612 40.4148 74.9612 41.0911 74.9612 41.7868C74.7259 41.7868 74.5568 41.7868 74.3503 41.7868C74.3503 40.6534 74.3503 39.5263 74.3503 38.3747C74.7124 38.2145 74.9581 38.3438 75.15 38.706C75.3722 39.1254 75.6368 39.5234 75.9212 39.994C76.1682 39.5765 76.4186 39.2151 76.6029 38.824C76.7879 38.4315 77.029 38.2324 77.4923 38.3876C77.4923 39.5 77.4923 40.6255 77.4523 41.7681Z" fill="#111111"/>
<path d="M46.2727 14.2932C45.8438 14.1633 45.3968 14.0024 44.9476 13.8475C42.9517 13.1588 40.9051 12.706 38.7845 12.6185C37.662 12.5722 36.5373 12.5011 35.4156 12.5265C33.3986 12.572 31.3838 12.683 29.4192 13.201C27.6726 13.6614 25.9235 14.1133 24.1769 14.5737C24.0843 14.5981 24.004 14.6667 23.9296 14.8257C24.0637 14.8257 24.2044 14.8522 24.3308 14.8218C26.7805 14.2332 29.2736 14.1081 31.7823 14.1484C31.8778 14.1499 31.9724 14.2022 32.0826 14.2663C30.2824 14.3843 28.4545 14.366 26.6555 14.5796C25.0733 14.7675 23.5235 15.2151 21.9591 15.5472C21.7775 15.5858 21.5947 15.619 21.368 15.5696C21.6428 15.4473 21.9146 15.3184 22.1927 15.2037C27.7219 12.9233 33.4635 11.9243 39.4584 12.5176C41.8133 12.7507 44.1224 13.1867 46.2727 14.2932ZM23.2547 14.9098C23.2198 14.9499 23.185 14.99 23.1501 15.0301C23.2124 15.0328 23.2747 15.0356 23.337 15.0383C23.328 14.9898 23.3191 14.9412 23.2547 14.9098ZM22.8114 15.1318C22.8199 15.1175 22.8283 15.1032 22.8367 15.0889C22.8229 15.095 22.8091 15.1012 22.8114 15.1318Z" fill="#111111"/>
<path d="M54.0561 21.5326C54.4368 21.7067 54.792 21.5761 55.1622 21.4025C57.6328 20.2434 60.2021 19.332 62.8793 18.7778C64.7617 18.3883 66.6812 18.1576 68.5923 17.9182C69.6853 17.7813 70.7947 17.7698 71.8965 17.6993C71.9739 17.6943 72.0499 17.6685 72.2776 17.6206C72.0683 17.551 72.0006 17.5103 71.9317 17.5083C70.6693 17.4709 69.4067 17.4102 68.1443 17.4117C66.6389 17.4136 65.1336 17.4709 63.6281 17.5006C63.4561 17.504 63.2835 17.4844 63.0761 17.4519C67.0085 17.2813 70.9766 17.1104 74.9258 17.7066C74.9873 17.7159 75.0482 17.7286 75.095 17.6367C72.4252 17.8202 69.7467 17.9242 67.0877 18.2053C62.852 18.653 58.8088 19.8202 54.9717 21.6424C54.645 21.7975 54.3395 21.9447 54.0561 21.5326Z" fill="#111111"/>
<path d="M59.4377 40.2083C59.5682 40.1006 59.692 39.9913 59.8278 39.9745C60.0819 39.9432 60.3429 39.9655 60.6653 39.9655C60.6653 40.2638 60.6653 40.5459 60.6653 40.828C60.6653 41.0978 60.6653 41.3677 60.6653 41.6283C59.6951 42.0624 58.547 41.9149 58.0005 41.2979C57.5023 40.7352 57.4634 39.7063 57.9163 39.0651C58.3917 38.3918 59.479 38.1399 60.5114 38.4623C60.5114 38.6577 60.5114 38.8515 60.5114 39.0001C60.0666 38.9749 59.6498 38.8894 59.2518 38.9417C58.4693 39.0446 58.0838 39.6702 58.2618 40.434C58.4111 41.0748 59.1937 41.524 59.8541 41.2723C60.0188 41.2096 60.0607 40.8393 60.1245 40.6908C59.8871 40.3685 59.4156 40.761 59.4377 40.2083Z" fill="#111111"/>
<path d="M10.0002 27.3757C10.0011 27.8999 9.99115 28.3744 10.0031 28.8484C10.0098 29.1142 9.89774 29.2074 9.63295 29.2024C9.02611 29.191 8.41868 29.1878 7.81195 29.2012C7.52403 29.2075 7.38878 29.1123 7.41783 28.8216C7.42957 28.7041 7.43455 28.5826 7.41754 28.4664C7.35883 28.0655 7.55872 27.9566 7.92887 27.9973C8.11426 28.0177 8.30394 28.0009 8.58749 28.0009C8.58749 27.5929 8.61299 27.2285 8.58083 26.8691C8.54329 26.4494 8.64707 26.2448 9.13652 26.2636C10.1919 26.3042 9.98525 26.2113 10.0002 27.3757Z" fill="#111111"/>
<path d="M23.366 27.6769C23.3656 27.4913 23.3652 27.3561 23.3646 27.2209C23.36 26.2002 23.3596 26.2084 24.3854 26.2615C24.668 26.2762 24.7989 26.3707 24.7898 26.6532C24.7795 26.974 24.8018 27.2961 24.7828 27.6161C24.7629 27.9508 24.8613 28.0999 25.2446 28.0935C25.9934 28.081 26.0626 28.1708 25.9465 28.9045C25.9289 29.0161 25.7525 29.1839 25.6437 29.1883C24.9874 29.2148 24.3288 29.2147 23.6726 29.1873C23.5672 29.1828 23.3933 29.0029 23.3827 28.8921C23.3459 28.5067 23.3669 28.116 23.366 27.6769Z" fill="#111111"/>
<path d="M20.8783 28.9539C20.8738 28.198 20.8834 27.488 20.8657 26.7787C20.8569 26.428 20.9467 26.255 21.3563 26.2614C22.7376 26.2829 22.4721 26.1491 22.5046 27.3503C22.5179 27.84 22.4964 28.3306 22.5129 28.8202C22.5225 29.1069 22.4097 29.2171 22.1198 29.2022C21.8265 29.1872 21.5298 29.2183 21.2386 29.19C21.1142 29.1779 21 29.0664 20.8783 28.9539Z" fill="#111111"/>
<path d="M10.8699 28.5761C10.8695 27.9343 10.8813 27.3408 10.8642 26.7482C10.8546 26.4114 10.957 26.265 11.3338 26.2589C12.4097 26.2414 12.4108 26.2264 12.4169 27.2885C12.4199 27.8138 12.4362 28.3403 12.4016 28.8635C12.3937 28.9831 12.2109 29.1752 12.0912 29.1888C11.717 29.2313 11.3345 29.2044 10.9007 29.2044C10.889 28.9848 10.8795 28.8048 10.8699 28.5761Z" fill="#111111"/>
<path d="M27.3653 16.6245C27.0243 16.7174 26.6408 16.8231 26.25 16.882C25.2174 17.0374 24.1606 17.0897 23.152 17.3346C21.5496 17.7238 19.9784 18.2357 18.3948 18.6982C18.323 18.7192 18.2588 18.7647 18.1911 18.7988C18.2007 18.8426 18.2103 18.8863 18.22 18.93C18.4398 18.8985 18.659 18.8623 18.8794 18.8362C20.275 18.6712 21.6708 18.5084 23.1004 18.3684C20.4182 18.6323 17.7469 19.0773 15.1807 20.0205C14.9239 20.1149 14.6365 20.1302 14.4526 20.1652C15.3751 19.7679 16.3734 19.2966 17.4037 18.9059C18.4671 18.5026 19.5507 18.1407 20.6458 17.8292C21.7242 17.5225 22.8194 17.2548 23.9235 17.0563C25.0451 16.8546 26.1866 16.7583 27.3653 16.6245ZM17.8831 19.0887C17.8962 19.0779 17.9113 19.0687 17.9217 19.0558C17.9316 19.0434 17.9366 19.0271 17.9437 19.0125C17.8012 19.0125 17.6586 19.0125 17.5161 19.0125C17.5184 19.0461 17.5207 19.0797 17.523 19.1133C17.6224 19.1133 17.7218 19.1133 17.8831 19.0887Z" fill="#111111"/>
<path d="M67.0412 40.728C66.8433 40.2576 66.6596 39.8265 66.444 39.4111C66.2648 39.0657 66.0481 38.7389 65.8298 38.3732C66.2222 38.2285 66.5138 38.2621 66.7202 38.6618C66.9122 39.0335 67.1437 39.3858 67.3872 39.7963C67.6255 39.4187 67.8736 39.0942 68.0453 38.7349C68.2366 38.3345 68.5151 38.2434 68.9544 38.3737C68.3974 39.4596 67.3116 40.3524 67.7299 41.7861C67.4542 41.7861 67.2745 41.7861 67.0416 41.7861C67.0416 41.4462 67.0416 41.1101 67.0412 40.728Z" fill="#111111"/>
<path d="M34.2548 43.6433C34.342 43.7172 34.4078 43.8359 34.4574 43.8298C35.752 43.6692 37.0486 43.5178 38.3371 43.317C39.3041 43.1663 40.2823 43.0204 41.216 42.7448C42.564 42.3468 43.8762 41.8329 45.204 41.3695C45.3647 41.3134 45.5276 41.2636 45.7308 41.2144C44.1033 42.1174 42.308 42.6917 40.4498 43.0333C38.4408 43.4025 36.4106 43.6641 34.3861 43.9485C34.0337 43.998 33.6637 43.9195 33.3018 43.9188C33.2249 43.9186 33.1479 43.9998 33.0648 44.0045C33.4519 43.8797 33.8389 43.7548 34.2548 43.6433Z" fill="#111111"/>
<path d="M32.3543 14.328C32.8927 14.3258 33.4889 14.2561 34.0511 14.3607C35.5744 14.6441 37.1061 14.9266 38.5891 15.3583C39.4447 15.6074 40.2122 16.145 41.0237 16.589C38.3748 15.0566 35.4319 14.5321 32.3543 14.328Z" fill="#111111"/>
<path d="M39.1916 18.9636C38.7877 18.8184 38.354 18.6666 37.943 18.4697C36.0777 17.5757 34.0988 17.0967 32.0421 16.886C31.5845 16.8392 31.1294 16.7687 30.6573 16.6748C33.6628 16.7757 36.5334 17.4452 39.1916 18.9636Z" fill="#111111"/>
<path d="M23.5018 18.3691C23.9822 18.2779 24.5075 18.1365 25.0358 18.1247C26.5043 18.0921 27.9743 18.0967 29.443 18.1212C30.0733 18.1317 30.7021 18.2278 31.3495 18.3178C29.0715 18.3415 26.7755 18.3303 24.4794 18.3261C24.1691 18.3256 23.8586 18.3599 23.5018 18.3691Z" fill="#111111"/>
<path d="M55.8995 17.63C54.9849 17.6151 54.0229 17.6143 53.065 17.5531C52.4327 17.5127 51.7928 17.4373 51.1802 17.2854C50.1793 17.0373 49.1946 16.7201 48.4926 15.866C50.2299 17.2906 52.39 17.357 54.5043 17.565C54.9515 17.609 55.4039 17.602 55.8995 17.63Z" fill="#111111"/>
<path d="M35.4731 18.8159C36.0199 18.8589 36.6129 18.8756 37.1883 18.9827C37.9112 19.1172 38.6191 19.3282 39.3351 19.4993C39.4275 19.5214 39.5302 19.5024 39.6949 19.5024C39.5801 19.3617 39.5014 19.2652 39.4154 19.1342C39.8717 19.3635 40.3354 19.6273 40.799 19.8911C40.7813 19.9038 40.7636 19.9165 40.7459 19.9292C39.0012 19.5628 37.2564 19.1963 35.4731 18.8159Z" fill="#111111"/>
<path d="M48.7039 19.2218C49.1828 19.2773 49.7171 19.2853 50.2096 19.4295C51.5049 19.8085 52.725 20.3579 53.7973 21.1823C53.8894 21.2532 53.9599 21.3507 54.0428 21.4719C52.4555 20.3527 50.7097 19.5454 48.7039 19.2218Z" fill="#111111"/>
<path d="M62.5718 17.4334C62.5421 17.4953 62.4657 17.5924 62.3871 17.5942C60.8243 17.6303 59.2612 17.6553 57.6626 17.6605C59.2594 17.567 60.8918 17.4956 62.5718 17.4334Z" fill="#111111"/>
<path d="M39.0429 41.6329C39.0763 41.6446 39.0787 41.67 39.0685 41.6765C38.045 42.329 36.9789 42.8911 35.7301 43.149C36.7952 42.6459 37.9006 42.1418 39.0429 41.6329Z" fill="#111111"/>
<path d="M31.6282 18.3902C32.0939 18.3892 32.6049 18.3732 33.1097 18.4204C33.7698 18.4822 34.4252 18.594 35.1 18.7143C33.9686 18.6307 32.8197 18.5171 31.6282 18.3902Z" fill="#111111"/>
<path d="M45.7949 19.1727C45.7811 19.126 45.8132 19.0554 45.8454 19.0553C46.7046 19.0524 47.5691 18.838 48.4369 19.1438C47.5816 19.179 46.7112 19.1803 45.7949 19.1727Z" fill="#111111"/>
<path d="M46.2178 38.5854C45.4492 38.8024 44.6946 38.4995 43.9186 38.3695C43.6943 38.3319 43.4483 38.4182 43.1748 38.4528C43.2659 38.1584 43.4651 38.1109 43.7951 38.1793C44.582 38.3422 45.3818 38.4457 46.2178 38.5854Z" fill="#111111"/>
<path d="M49.0533 38.8838C48.8642 38.8188 48.7064 38.6699 48.5442 38.6652C47.9359 38.6479 47.3262 38.6777 46.6999 38.6563C47.533 38.5854 48.3832 38.548 49.2923 38.5081C49.2093 38.6497 49.146 38.7579 49.0533 38.8838Z" fill="#111111"/>
<path d="M42.287 17.569C43.0126 17.796 43.4456 18.3709 43.842 19.0242C43.3316 18.5733 42.8172 18.0859 42.287 17.569Z" fill="#111111"/>
<path d="M30.2801 16.6057C29.516 16.6324 28.7102 16.6473 27.8692 16.6392C28.6354 16.6088 29.4369 16.6014 30.2801 16.6057Z" fill="#111111"/>
<path d="M47.8431 15.3029C47.339 15.0174 46.819 14.7025 46.292 14.3522C46.799 14.6356 47.3131 14.9546 47.8431 15.3029Z" fill="#111111"/>
<path d="M43.847 19.0822C44.3769 19.0856 44.9185 19.1204 45.4935 19.177C45.2276 19.2546 44.9165 19.2778 44.6316 19.3744C44.2808 19.4934 44.0449 19.4025 43.847 19.0822Z" fill="#111111"/>
<path d="M40.5768 40.6701C40.1478 40.9752 39.6834 41.2891 39.1791 41.6006C39.6066 41.2917 40.074 40.9853 40.5768 40.6701Z" fill="#111111"/>
<path d="M41.0415 16.6501C41.4395 16.9044 41.8555 17.1864 42.2735 17.5048C41.8701 17.2534 41.4649 16.9657 41.0415 16.6501Z" fill="#111111"/>
<path d="M45.8822 41.187C46.1726 40.9956 46.4996 40.8013 46.8657 40.6077C46.5762 40.8003 46.2475 40.9922 45.8822 41.187Z" fill="#111111"/>
<path d="M41.4439 40.0041C41.2127 40.2222 40.948 40.451 40.6455 40.6721C40.8753 40.4478 41.1429 40.2312 41.4439 40.0041Z" fill="#111111"/>
<path d="M46.934 40.6085C47.087 40.4764 47.2761 40.34 47.5029 40.2076C47.3505 40.3424 47.1602 40.4734 46.934 40.6085Z" fill="#111111"/>
<path d="M42.1716 39.3881C42.0441 39.5366 41.8843 39.6958 41.6881 39.8596C41.8143 39.709 41.9768 39.5539 42.1716 39.3881Z" fill="#111111"/>
<path d="M48.3663 15.7118C48.2444 15.6591 48.108 15.5771 47.9736 15.4577C48.1009 15.5078 48.2264 15.5952 48.3663 15.7118Z" fill="#111111"/>
<path d="M48.7079 39.2807C48.7651 39.1625 48.8541 39.0329 48.9806 38.9041C48.9254 39.0265 48.8326 39.148 48.7079 39.2807Z" fill="#111111"/>
<path d="M48.1031 39.8137C48.159 39.7383 48.2449 39.6559 48.3643 39.5701C48.3095 39.6467 48.2212 39.7267 48.1031 39.8137Z" fill="#111111"/>
<path d="M47.6936 40.1251C47.7744 40.0301 47.8866 39.9241 48.0348 39.8178C47.9556 39.9163 47.8404 40.0152 47.6936 40.1251Z" fill="#111111"/>
<path d="M42.8012 38.7822C42.7702 38.8598 42.7091 38.9478 42.6124 39.0357C42.6416 38.9546 42.7063 38.8736 42.8012 38.7822Z" fill="#111111"/>
<path d="M48.4689 39.5207C48.4984 39.4499 48.5551 39.3679 48.6458 39.2872C48.6185 39.3621 48.5573 39.4358 48.4689 39.5207Z" fill="#111111"/>
<path d="M42.3873 39.191C42.3675 39.2449 42.3186 39.3074 42.237 39.3734C42.2557 39.3179 42.3069 39.2587 42.3873 39.191Z" fill="#111111"/>
<path d="M42.5558 39.037C42.5509 39.0748 42.5182 39.1217 42.4537 39.1732C42.4572 39.1339 42.4926 39.0901 42.5558 39.037Z" fill="#111111"/>
<path d="M39.3974 19.0788C39.3511 19.0883 39.2882 19.0718 39.2166 19.0224C39.2655 19.0106 39.3231 19.0318 39.3974 19.0788Z" fill="#111111"/>
<path d="M43.1106 38.4674C43.1096 38.5113 43.0814 38.5651 43.0197 38.6176C43.0187 38.5699 43.051 38.5237 43.1106 38.4674Z" fill="#111111"/>
<path d="M41.6319 39.8596C41.6226 39.8968 41.5839 39.9402 41.5132 39.9869C41.5217 39.9488 41.562 39.9074 41.6319 39.8596Z" fill="#111111"/>
<path d="M42.9589 38.6277C42.9561 38.6644 42.9274 38.7122 42.8665 38.7645C42.8672 38.7255 42.9001 38.6822 42.9589 38.6277Z" fill="#111111"/>
<path d="M40.9015 20.0964C40.8996 20.0962 40.9035 20.0967 40.9015 20.0964V20.0964Z" fill="#111111"/>
<path d="M47.5598 40.2128C47.5553 40.1875 47.5782 40.1576 47.6312 40.1304C47.6367 40.1582 47.6119 40.1832 47.5598 40.2128Z" fill="#111111"/>
<path d="M47.9623 15.3974C47.9383 15.4102 47.9025 15.3993 47.8606 15.3594C47.8865 15.3449 47.9184 15.3593 47.9623 15.3974Z" fill="#111111"/>
<path d="M48.4827 15.8072C48.4587 15.8192 48.423 15.807 48.381 15.7659C48.4068 15.7524 48.439 15.7677 48.4827 15.8072Z" fill="#111111"/>
<path d="M23.2825 14.9012C23.3191 14.9412 23.328 14.9898 23.337 15.0383C23.2747 15.0356 23.2124 15.0328 23.1501 15.0301C23.185 14.99 23.2199 14.9499 23.2825 14.9012Z" fill="#111111"/>
<path d="M22.8033 15.1196C22.809 15.1012 22.8229 15.095 22.8367 15.0889C22.8283 15.1032 22.8198 15.1175 22.8033 15.1196Z" fill="#111111"/>
<path d="M17.8522 19.101C17.7219 19.1133 17.6224 19.1133 17.523 19.1133C17.5207 19.0797 17.5184 19.0461 17.5161 19.0125C17.6586 19.0125 17.8012 19.0125 17.9437 19.0125C17.9366 19.0271 17.9316 19.0434 17.9217 19.0558C17.9113 19.0687 17.8962 19.0779 17.8522 19.101Z" fill="#111111"/>
<path d="M39.9653 19.5907C39.961 19.5928 39.9696 19.5885 39.9653 19.5907V19.5907Z" fill="#111111"/>
</svg>
