<svg width="21" height="21" viewBox="0 0 21 21" fill="none" xmlns="http://www.w3.org/2000/svg">
<path fill-rule="evenodd" clip-rule="evenodd" d="M6.62552 0.911724C7.69219 0.863654 8.03302 0.852051 10.7489 0.852051C13.4647 0.852051 13.8055 0.863654 14.8722 0.911724C16.4972 0.985486 17.9247 1.38165 19.0705 2.52124C20.2164 3.66082 20.6147 5.08054 20.6889 6.69668C20.7372 7.75754 20.7489 8.09651 20.7489 10.7975C20.7489 13.4986 20.7372 13.8375 20.6889 14.8984C20.6147 16.5145 20.2164 17.9343 19.0705 19.0738C17.9247 20.2134 16.4972 20.6096 14.8722 20.6834C13.8055 20.7314 13.4647 20.743 10.7489 20.743C8.03302 20.743 7.69219 20.7314 6.62552 20.6834C5.00052 20.6096 3.57302 20.2134 2.42719 19.0738C1.28136 17.9343 0.883022 16.5145 0.808856 14.8984C0.760522 13.8375 0.748856 13.4986 0.748856 10.7975C0.748856 8.09651 0.760522 7.75754 0.808856 6.69668C0.883022 5.08054 1.28136 3.66082 2.42719 2.52124C3.57302 1.38165 5.00052 0.985486 6.62552 0.911724ZM14.7888 2.70206C13.7346 2.65399 13.418 2.64404 10.748 2.64404C8.07797 2.64404 7.7613 2.65399 6.70714 2.70206C5.5688 2.75344 4.51297 2.98053 3.70047 3.7886C2.88797 4.59667 2.65964 5.64675 2.60797 6.77888C2.55964 7.8273 2.54964 8.14224 2.54964 10.7977C2.54964 13.4531 2.55964 13.7681 2.60797 14.8165C2.65964 15.9486 2.88797 16.9987 3.70047 17.8068C4.51297 18.6148 5.5688 18.8419 6.70714 18.8933C7.7613 18.9414 8.07797 18.9513 10.748 18.9513C13.418 18.9513 13.7346 18.9414 14.7888 18.8933C15.9271 18.8419 16.983 18.6148 17.7955 17.8068C18.608 16.9987 18.8363 15.9486 18.888 14.8165C18.9363 13.7681 18.9463 13.4531 18.9463 10.7977C18.9463 8.14224 18.9363 7.8273 18.888 6.77888C18.8363 5.64675 18.608 4.59667 17.7955 3.7886C16.983 2.98053 15.9271 2.75344 14.7888 2.70206ZM5.61214 10.797C5.61214 7.97658 7.9113 5.68994 10.7471 5.68994C13.583 5.68994 15.8821 7.97658 15.8821 10.797C15.8821 13.6173 13.583 15.904 10.7471 15.904C7.9113 15.904 5.61214 13.6173 5.61214 10.797ZM7.41292 10.7971C7.41292 12.6279 8.90542 14.1123 10.7462 14.1123C12.5871 14.1123 14.0796 12.6279 14.0796 10.7971C14.0796 8.9663 12.5871 7.48193 10.7462 7.48193C8.90542 7.48193 7.41292 8.9663 7.41292 10.7971ZM17.2856 5.48887C17.2856 6.148 16.7483 6.68233 16.0856 6.68233C15.4228 6.68233 14.8856 6.148 14.8856 5.48887C14.8856 4.82974 15.4228 4.29541 16.0856 4.29541C16.7483 4.29541 17.2856 4.82974 17.2856 5.48887Z" fill="#424242"/>
</svg>